<svg xmlns="http://www.w3.org/2000/svg" width="500" height="84.195" viewBox="0 0 500 84.195"><g transform="translate(-0.054)"><path d="M444.975,82.375c-2.515,0-5.03-.1-7.545-.1-2.515-.1-5.029-.1-7.544-.1h-2.917a18.426,18.426,0,0,1-5.231-.905c-3.923-1.207-6.337-4.627-6.538-9.053-.2-3.923.7-7.746,1.61-11.669.3-1.107.5-2.314.8-3.42,2.917-13.781,5.734-27.26,8.752-40.639,1.609-7.041,5.13-11.367,10.763-13.278A34.2,34.2,0,0,1,446.584,1.8c2.917-.1,5.834-.2,8.852-.2,2.817,0,5.734,0,8.751.1,5.734.2,11.367.5,16.6,2.716,15.089,6.136,17,20.319,16.8,28.166-.3,12.876-6.438,27.562-15.19,36.515a42.027,42.027,0,0,1-23.538,12.172A69.2,69.2,0,0,1,444.975,82.375Zm-5.432-3.923h7.645c1.811,0,3.319,0,4.728-.1a40.728,40.728,0,0,0,20.923-6.438c9.254-5.935,15.29-14.686,18.609-26.757,2.213-8.047,2.716-14.586,1.509-20.722-2.213-11.367-10.16-17.8-22.935-18.509-4.426-.3-8.752-.3-12.473-.3H447.188a33.209,33.209,0,0,0-7.042.5c-5.532,1.006-8.852,4.929-10.361,11.669-3.42,15.491-6.136,28.568-8.751,40.941-.8,3.923-1.408,8.148-2.012,13.278-.3,2.817,1.207,4.929,4.225,5.834a13.942,13.942,0,0,0,4.024.6H432.6C433.91,78.553,439.543,78.452,439.543,78.452Z" transform="translate(2.456 0.009)"/><path d="M11.97,83.791a12.868,12.868,0,0,1-6.538-1.609C2.716,80.673,1.106,78.359.3,74.838c-.6-2.817,0-5.633.7-8.55.2-.7.3-1.509.5-2.213,2.213-10.763,4.527-21.728,6.84-32.189,1.107-5.331,2.213-10.562,3.42-15.893,1.308-6.639,4.325-10.964,9.355-13.68A16.46,16.46,0,0,1,28.668.4a12.5,12.5,0,0,1,8.45,2.917c3.118,2.817,4.124,6.639,3.118,11.97-.2.905-.3,1.911-.5,2.917l-.5,2.414-1.207,4.828,10.663-9.254,4.527-3.923c3.32-2.917,6.84-6.035,10.361-8.852A12.668,12.668,0,0,1,71.52.3a12.118,12.118,0,0,1,5.13,1.308,10.881,10.881,0,0,1,5.633,7.343A10.407,10.407,0,0,1,79.869,17.7a81.073,81.073,0,0,1-7.243,7.142c-1.006.905-2.112,1.811-3.118,2.817-1.811,1.71-5.935,5.231-7.846,6.941a20.557,20.557,0,0,0,1.408,3.219c1.207,2.716,2.314,5.432,3.521,8.249,2.213,5.331,4.527,10.864,7.041,16.2,3.923,8.55-1.006,15.29-6.84,18.811a16.514,16.514,0,0,1-8.651,2.615,12.486,12.486,0,0,1-2.716-.3,10.435,10.435,0,0,1-8.047-6.337l-2.414-5.633c-2.012-4.627-4.124-9.355-6.036-13.982-.3-.7-1.609-4.024-1.609-4.024-.905.5-3.621,3.018-4.325,3.42-2.716,1.811-2.414,3.822-2.917,6.035a55.4,55.4,0,0,1-3.521,11.87A16.231,16.231,0,0,1,11.97,83.791ZM41.544,54.72C44.461,61.46,47.579,68.5,50.5,75.442a7.2,7.2,0,0,0,7.041,4.627h.4a12.243,12.243,0,0,0,3.822-.7c4.024-1.308,7.041-3.822,8.349-6.941s1.107-6.74-.8-10.763c-2.817-5.935-5.432-12.071-7.947-18.106-1.308-3.118-2.615-6.337-4.024-9.456,0-.2,0-.3,0-.4l.2-.2c4.124-3.621,8.248-7.243,12.071-10.663l1.106-1.006c1.911-1.71,3.923-3.521,5.734-5.432a7.5,7.5,0,0,0,.8-9.556,6.746,6.746,0,0,0-5.633-2.615,8.575,8.575,0,0,0-3.521.8,10.021,10.021,0,0,0-2.414,1.408c-7.846,6.74-14.284,12.272-20.219,17.5-3.923,3.42-7.746,6.74-11.568,10.16l-1.811,1.609c.3-1.308.5-2.615.8-3.822,1.308-6.136,2.716-12.473,3.722-18.71.5-2.716.1-4.828-1.107-6.337S32.29,4.525,29.372,4.324h-.7C22.029,4.324,17,8.75,15.491,15.791s-3.018,13.982-4.426,20.923c-1.308,5.834-2.515,11.568-3.722,17.4-1.207,5.432-2.314,11.166-3.42,16.9-.905,4.426,1.308,7.745,5.734,8.651a10.743,10.743,0,0,0,2.515.3h0a12.493,12.493,0,0,0,11.97-8.852,93.561,93.561,0,0,0,2.515-10.16l.4-1.811a5.268,5.268,0,0,1,1.71-3.219C31.384,53.714,34,51.4,36.716,48.986l1.71-1.509C38.426,47.578,41.544,54.72,41.544,54.72Z" transform="translate(0 0.002)"/><path d="M343.669,83.782a14.215,14.215,0,0,1-6.538-1.509,9.87,9.87,0,0,1-5.03-10.26c1.207-6.941,2.716-13.882,4.124-20.621l.8-3.822c2.112-10.059,4.326-20.42,6.639-30.58,1.207-5.331,3.319-8.953,6.84-11.467a16.7,16.7,0,0,1,9.154-3.32c2.012-.1,4.225-.1,6.941-.1h10.26c1.911,0,3.822,0,5.633-.1,1.911,0,3.722-.1,5.633-.1,2.615,0,4.828.1,6.84.2,9.355.8,15.29,4.024,18.509,10.462C416.8,19,416.2,25.74,411.769,33.586a27.444,27.444,0,0,1-7.645,8.651c-1.006.6-2.817,1.509-2.817,1.509a21.711,21.711,0,0,1,3.018,2.112c3.018,3.018,3.219,6.941,2.917,10.663-.1,1.911-.3,3.722-.5,5.633-.2,2.213-.4,4.426-.6,6.74-.7,10.864-9.053,14.686-15.994,14.686h-.1c-6.237,0-10.059-2.213-11.668-6.538a20.252,20.252,0,0,1-.6-7.041V68.29c0-1.811.2-3.621.3-5.533q.151-1.509.3-3.018a3.888,3.888,0,0,0-.905-3.118,4.1,4.1,0,0,0-2.817-1.308c-3.018-.2-5.532-.3-7.846-.3h-3.621s-.4,2.012-.7,2.917a54.36,54.36,0,0,0-1.207,5.533c-.7,3.118-1.408,6.438-2.414,9.456A15.781,15.781,0,0,1,343.669,83.782ZM368.313,51.29c1.71,0,3.118,0,4.426.1,3.521.1,6.036,1.107,7.645,2.917,1.509,1.71,2.113,4.225,1.811,7.343-.4,3.923-.6,8.047-.8,11.568a5.356,5.356,0,0,0,3.823,5.734,14.487,14.487,0,0,0,5.13.905c5.935,0,12.071-3.621,12.172-11.669a107.233,107.233,0,0,1,.905-10.964c.905-6.136-.7-9.456-5.935-12.373-.6-.4-2.112-1.106-2.716-1.408l3.42-1.71c3.42-1.308,7.243-3.219,9.255-7.142,2.012-4.024,3.319-6.639,3.923-10.059,1.811-10.059-2.314-16.2-12.473-18.207a64.555,64.555,0,0,0-13.177-.905H381.29c-4.225,0-8.551.1-12.675.1-2.414,0-4.828.1-7.243.1-7.242.1-12.172,3.923-13.68,10.964-2.515,11.065-4.829,22.331-7.142,33.2l-1.509,7.142c-.2,1.107-.5,2.112-.7,3.219-.8,3.722-1.71,7.645-2.213,11.568-.4,2.515,0,4.426,1.106,5.734a6.623,6.623,0,0,0,4.627,2.314,17.048,17.048,0,0,0,2.213.1c6.337,0,10.763-3.722,12.373-10.361,1.207-5.13,2.314-10.26,3.32-15.29l.5-2.615c0-.2.1-.3.1-.4H365.3A27.347,27.347,0,0,0,368.313,51.29Z" transform="translate(1.964 0.011)"/><path d="M245.911,82.273H221.267c-5.734-.1-9.757-2.917-10.864-7.544a17.839,17.839,0,0,1-.1-7.645c3.219-15.692,6.639-31.888,10.562-49.692,1.408-6.438,4.124-10.562,8.45-12.775A18.4,18.4,0,0,1,237.059,2.3c6.337-.3,13.178-.5,20.118-.5h6.538c5.13.1,10.964.3,16.5,2.414,7.041,2.817,10.562,7.645,10.461,14.586-.1,7.444-2.615,13.379-7.544,17.6-.8.6-3.822,2.817-3.822,2.817a42.856,42.856,0,0,1,3.521,2.615c3.621,4.024,4.728,8.953,3.521,15.089-2.615,13.278-11.97,22.03-26.254,24.544a61.913,61.913,0,0,1-8.55.8Zm-22.533-3.722h15.793c4.627,0,8.45,0,11.97-.1A50.707,50.707,0,0,0,261.8,77.143c10.16-2.414,16.8-8.047,19.716-16.8,3.219-9.757.905-16.5-7.343-21.225,1.207-.7,2.213-1.408,3.42-2.012a15.749,15.749,0,0,0,8.148-10.663,8.379,8.379,0,0,1,.4-1.509,19.086,19.086,0,0,0,.5-2.314c.8-4.225.1-7.746-2.012-10.562-2.515-3.32-7.042-5.432-12.876-5.935-4.024-.4-8.45-.5-13.68-.5-3.923,0-7.846.1-11.769.2-3.118.1-6.438.2-9.556.2a9.582,9.582,0,0,0-8.249,4.124,25.979,25.979,0,0,0-3.621,7.645c-1.308,5.231-2.414,10.562-3.521,15.793-.3,1.308-.5,2.615-.8,3.923l-1.107,5.432c-1.811,8.751-3.722,17.8-5.432,26.657a7.73,7.73,0,0,0,1.106,6.337c1.207,1.609,3.32,2.515,6.237,2.716h1.308Z" transform="translate(1.242 0.011)"/><path d="M115,84.2a39.377,39.377,0,0,1-15.692-3.118C88.039,76.45,82,67.9,81.4,55.627c-.8-16.4,4.728-30.379,16.4-41.645C105.442,6.639,115.3,2.012,126.868.4A40.127,40.127,0,0,1,132.8,0a39.361,39.361,0,0,1,18.006,4.426c8.45,4.325,13.58,11.568,15.29,21.527.2,1.308.3,2.716.4,4.124,0,.6.1,1.308.1,1.911-.8,15.491-5.834,27.763-15.391,37.521-7.343,7.444-16.7,12.071-28.065,13.982A43.833,43.833,0,0,1,115,84.2ZM132.5,3.822a47.325,47.325,0,0,0-17.4,3.32A45.017,45.017,0,0,0,90.253,30.177a50.8,50.8,0,0,0-5.13,26.858,23.431,23.431,0,0,0,8.55,16.7c4.527,3.722,10.16,5.734,17.1,6.438a43.748,43.748,0,0,0,5.13.2A44.526,44.526,0,0,0,147.69,67.8c11.669-11.166,16.6-25.248,14.586-41.846a23.314,23.314,0,0,0-10.462-16.8c-5.13-3.521-11.568-5.331-19.314-5.331Z" transform="translate(0.481)"/><path d="M303.568,83.79a11.524,11.524,0,0,1-10.16-5.533C291.9,75.642,291.5,72.624,292.4,68.7c1.408-6.438,2.716-12.876,4.124-19.314,2.112-9.657,4.124-19.314,6.237-28.97l.3-1.308c.905-4.124,1.71-8.047,4.024-11.467A17.023,17.023,0,0,1,320.568.5a13.657,13.657,0,0,1,2.917.3c6.438,1.408,9.355,6.035,8.651,13.982l-.906,4.527c-.8,4.024-1.81,8.751-2.816,13.479L326.3,42.748c-1.911,8.852-3.822,18.006-5.834,26.858-1.61,7.343-5.935,11.97-12.775,13.68A18.517,18.517,0,0,1,303.568,83.79Zm17.2-79.568a12.727,12.727,0,0,0-2.817.3C312.421,5.63,309,9.352,307.592,15.589c-3.219,14.988-6.337,29.675-9.858,46.071-.1.6-.3,1.207-.4,1.911a75.674,75.674,0,0,0-1.509,8.55c-.4,4.124,1.609,6.941,5.533,7.645a12.488,12.488,0,0,0,2.716.3,13,13,0,0,0,12.775-10.462c2.615-11.87,5.13-23.941,7.645-35.71l1.81-8.45c.7-3.118,1.308-6.136,1.811-8.651l.6-2.817v-.2c0-5.432-.905-8.55-5.734-9.254A8.974,8.974,0,0,0,320.77,4.222Z" transform="translate(1.727 0.003)"/><path d="M180.372,83.79a17.576,17.576,0,0,1-5.834-1.106c-4.426-1.71-7.142-7.142-6.136-12.272,2.515-12.172,5.935-28.367,9.456-44.562.2-.8.3-1.609.5-2.414a80.738,80.738,0,0,1,3.521-13.077A16.22,16.22,0,0,1,196.667.4a15.352,15.352,0,0,1,3.018.3c6.438,1.408,9.053,5.231,9.053,13.077l-.5,2.414c-.5,2.515-1.207,5.734-1.811,9.053l-.3,1.509c-3.018,13.982-6.036,28.367-9.154,42.55-1.107,4.929-3.32,8.55-6.74,10.964A16.44,16.44,0,0,1,180.372,83.79Zm16.9-79.568c-7.041,0-11.769,4.024-13.379,11.266-1.308,5.935-2.615,11.97-3.823,17.8l-1.509,6.941-1.71,7.846c-1.509,7.142-3.118,14.586-4.627,21.929a8.852,8.852,0,0,0,1.408,7.444,7.546,7.546,0,0,0,6.035,2.615h0a19.634,19.634,0,0,0,2.314-.2c6.438-1.207,10.059-5.03,11.468-11.769,1.811-8.751,3.722-17.4,5.533-26.154,1.207-5.734,2.414-11.467,3.722-17.2.6-2.917,1.207-5.834,1.71-8.249l.5-2.716v-.2c0-6.639-2.213-9.355-7.645-9.355Z" transform="translate(0.995 0.002)"/><path d="M440.1,62.747c1.71-7.746,3.32-15.592,5.03-23.438l1.71-8.148.5-2.414c.5-2.515,1.006-5.03,1.71-7.544,0-.1.2-.3.3-.4h3.621a48.23,48.23,0,0,1,8.45.5c8.047,1.207,11.769,6.237,11.065,14.787a43.017,43.017,0,0,1-4.225,15.893c-3.42,6.639-9.053,10.16-17.1,10.763-.5,0-1.107.1-1.811.1h-6.74a18.626,18.626,0,0,1-2.515-.1Zm11.97-38.225s-.1.5-.6,3.118c-.2,1.207-.5,2.414-.8,3.621-.2.7-.3,1.408-.5,2.112-1.609,7.343-3.118,14.686-4.728,22.03-.2.7-.8,3.923-.8,3.923s4.325.1,5.13.1c4.929,0,10.964-2.817,13.379-6.337,3.923-5.533,4.828-12.071,5.532-17.3v-.2c0-6.74-2.012-9.556-7.544-10.562-1.308-.2-2.716-.3-4.024-.4-.7,0-1.308-.1-2.012-.1C454.987,24.622,452.07,24.522,452.07,24.522Z" transform="translate(2.603 0.123)"/><path d="M375.577,38.909H362.5c1.207-5.633,2.615-11.568,3.823-17.6.2-.905.2-.905,1.006-.905h.1c2.716.1,5.432.1,7.645.1h7.242a10.345,10.345,0,0,1,1.71.1c5.734,1.107,6.639,3.822,6.84,6.035.3,3.822-1.207,8.55-5.331,10.462a26.727,26.727,0,0,1-7.444,1.71A18.639,18.639,0,0,1,375.577,38.909Zm-5.834-14.988s-.4,1.308-1.006,4.225c-.1.4-.2.8-.3,1.308a2.942,2.942,0,0,0-.2.905c-.4,1.911-.8,4.728-.8,4.728s3.018.2,4.125.2h6.438a12.488,12.488,0,0,0,2.716-.3h.1a6.551,6.551,0,0,0,6.136-6.74c0-2.515-1.408-4.124-3.923-4.124-1.006,0-2.012,0-3.018-.1-2.012,0-4.124-.1-6.136-.2C373.666,23.921,369.743,23.921,369.743,23.921Z" transform="translate(2.144 0.121)"/><path d="M243.151,64.707H234.4l.5-2.314c.7-3.219,1.308-6.438,2.012-9.556.2-.8.3-1.609.5-2.314.3-1.207.6-2.515.8-3.823,0-.1,0-.2.1-.2h9.456c2.414,0,4.325,0,6.036.1,4.929.1,8.55,2.917,8.751,6.74A9.911,9.911,0,0,1,256.53,63.3a20.388,20.388,0,0,1-6.74,1.509C247.879,64.707,245.767,64.707,243.151,64.707Zm6.237-14.686h-7.846s-.1.6-.4,1.911c-.4,1.71-.8,3.42-1.207,5.432-.1.7-.8,3.923-.8,3.923h1.911c1.207-.1,2.414-.1,3.521-.1a63.944,63.944,0,0,0,7.746-.5,9.151,9.151,0,0,0,5.331-3.521,4.434,4.434,0,0,0,.7-4.627c-.7-1.509-2.314-2.314-4.426-2.414C252.506,50.021,251,50.021,249.388,50.021Z" transform="translate(1.386 0.275)"/><path d="M254.684,36.7h-.6c-.8,0-1.609-.1-2.314-.1H240.4v-.1c.5-2.213,1.006-4.527,1.509-6.74.7-3.521,1.509-6.941,2.314-10.462,0-.1.1-.2.2-.3h4.627c3.118,0,6.74,0,10.26.3,2.716.2,4.627,1.107,5.633,2.817,1.207,2.012,1.308,4.929.1,8.047A11.339,11.339,0,0,1,254.684,36.7Zm-5.432-3.621h3.219a22.765,22.765,0,0,0,2.716-.1,7.173,7.173,0,0,0,6.538-4.929,4.183,4.183,0,0,0-.3-3.521,4,4,0,0,0-2.917-1.609,9.778,9.778,0,0,0-1.811-.1h-9.254s-.5,1.609-1.107,4.426c-.1.6-.3,1.408-.5,2.314-.2,1.107-.8,3.521-.8,3.521s2.515.1,3.521.1Z" transform="translate(1.422 0.112)"/><path d="M119.479,64.868a14.764,14.764,0,0,1-6.438-1.408c-4.225-2.012-6.438-5.633-7.041-11.669V49.377c.7-11.467,3.722-19.213,9.657-25.148A17.452,17.452,0,0,1,127.828,19.3a17.214,17.214,0,0,1,6.74,1.408,11,11,0,0,1,6.538,9.053c1.509,11.166-1.308,21.024-8.45,29.373A17.863,17.863,0,0,1,119.479,64.868Zm8.953-42.047a14.97,14.97,0,0,0-12.272,6.337c-4.728,6.538-6.84,14.385-6.337,23.237.3,4.426,2.917,7.746,6.84,8.349a14.731,14.731,0,0,0,2.917.2,13.723,13.723,0,0,0,11.266-5.533c4.426-5.432,6.639-12.071,7.041-21.024V31.673c-.4-5.633-3.923-9.053-9.254-9.053Z" transform="translate(0.627 0.114)"/></g></svg>