<svg xmlns="http://www.w3.org/2000/svg" width="500" height="84.19"><path d="M447.38 82.38c-2.52 0-5.03-.1-7.55-.1-2.51-.1-5.03-.1-7.54-.1h-2.92a18.43 18.43 0 0 1-5.23-.9c-3.92-1.2-6.34-4.63-6.54-9.05-.2-3.93.7-7.75 1.61-11.67.3-1.11.5-2.32.8-3.42 2.92-13.78 5.74-27.26 8.75-40.64 1.61-7.04 5.13-11.37 10.77-13.28a34.2 34.2 0 0 1 9.46-1.41 255.56 255.56 0 0 1 17.6-.1c5.73.2 11.37.5 16.6 2.72 15.09 6.13 17 20.31 16.8 28.16-.3 12.88-6.44 27.56-15.2 36.52a42.03 42.03 0 0 1-23.53 12.17 69.2 69.2 0 0 1-13.88 1.1Zm-5.43-3.92h7.64c1.81 0 3.32 0 4.73-.1a40.73 40.73 0 0 0 20.92-6.44c9.25-5.93 15.3-14.68 18.61-26.75 2.21-8.05 2.72-14.59 1.5-20.73-2.2-11.36-10.15-17.8-22.93-18.5-4.42-.3-8.75-.3-12.47-.3H449.6a33.2 33.2 0 0 0-7.04.5c-5.53 1-8.85 4.92-10.36 11.66-3.42 15.5-6.14 28.57-8.75 40.94-.8 3.93-1.41 8.15-2.02 13.28-.3 2.82 1.21 4.93 4.23 5.84a13.94 13.94 0 0 0 4.02.6H435c1.31.1 6.94 0 6.94 0ZM11.92 83.8a12.87 12.87 0 0 1-6.54-1.62c-2.72-1.5-4.33-3.82-5.13-7.34-.6-2.82 0-5.63.7-8.55.2-.7.3-1.5.5-2.21 2.2-10.77 4.52-21.73 6.84-32.2 1.1-5.32 2.2-10.55 3.42-15.89C13 9.36 16.03 5.03 21.06 2.31a16.46 16.46 0 0 1 7.55-1.9 12.5 12.5 0 0 1 8.45 2.9c3.12 2.83 4.13 6.65 3.12 11.98-.2.9-.3 1.91-.5 2.92l-.5 2.41-1.2 4.83 10.66-9.26 4.53-3.92C56.49 9.35 60 6.24 63.53 3.42A12.67 12.67 0 0 1 71.47.3a12.12 12.12 0 0 1 5.13 1.31 10.88 10.88 0 0 1 5.63 7.34 10.4 10.4 0 0 1-2.42 8.75 81.07 81.07 0 0 1-7.24 7.14c-1 .9-2.11 1.81-3.12 2.82-1.8 1.71-5.93 5.23-7.84 6.94a20.56 20.56 0 0 0 1.4 3.22c1.21 2.72 2.32 5.43 3.53 8.25a379.54 379.54 0 0 0 7.04 16.2c3.92 8.55-1 15.29-6.84 18.81a16.51 16.51 0 0 1-8.65 2.62 12.49 12.49 0 0 1-2.72-.3 10.44 10.44 0 0 1-8.05-6.34l-2.41-5.63c-2.01-4.63-4.12-9.36-6.04-13.99-.3-.7-1.6-4.02-1.6-4.02-.91.5-3.63 3.02-4.33 3.42-2.72 1.81-2.41 3.82-2.92 6.03a55.4 55.4 0 0 1-3.52 11.87 16.23 16.23 0 0 1-14.58 9.05Zm29.57-29.08c2.92 6.74 6.03 13.78 8.96 20.72a7.2 7.2 0 0 0 7.04 4.63h.4a12.24 12.24 0 0 0 3.82-.7c4.02-1.3 7.04-3.82 8.35-6.94s1.1-6.74-.8-10.76a411.54 411.54 0 0 1-7.95-18.1c-1.3-3.13-2.61-6.35-4.02-9.47v-.4l.2-.2c4.12-3.62 8.24-7.24 12.07-10.66l1.1-1a96.9 96.9 0 0 0 5.74-5.44 7.5 7.5 0 0 0 .8-9.55 6.75 6.75 0 0 0-5.64-2.62 8.57 8.57 0 0 0-3.52.8 10.02 10.02 0 0 0-2.41 1.41 2209.4 2209.4 0 0 0-20.22 17.5c-3.92 3.42-7.75 6.74-11.57 10.16l-1.8 1.61c.3-1.3.5-2.62.8-3.82 1.3-6.14 2.7-12.48 3.71-18.71.5-2.72.1-4.83-1.1-6.34s-3.21-2.31-6.13-2.51h-.7c-6.64 0-11.67 4.42-13.18 11.46S12.42 29.78 11 36.72c-1.3 5.83-2.51 11.56-3.72 17.4a623.64 623.64 0 0 0-3.42 16.9c-.9 4.42 1.3 7.74 5.73 8.65a10.74 10.74 0 0 0 2.52.3 12.5 12.5 0 0 0 11.97-8.86 93.56 93.56 0 0 0 2.51-10.16l.4-1.8a5.27 5.27 0 0 1 1.71-3.23c2.62-2.2 5.24-4.52 7.95-6.93l1.71-1.51a519 519 0 0 0 3.12 7.24ZM345.58 83.8a14.21 14.21 0 0 1-6.54-1.52 9.87 9.87 0 0 1-5.03-10.26c1.2-6.94 2.72-13.88 4.13-20.62l.8-3.82c2.1-10.06 4.32-20.42 6.63-30.58 1.21-5.33 3.32-8.95 6.84-11.47a16.7 16.7 0 0 1 9.16-3.32c2.01-.1 4.22-.1 6.94-.1h10.26c1.91 0 3.82 0 5.63-.1 1.91 0 3.72-.1 5.64-.1 2.61 0 4.82.1 6.83.2 9.36.8 15.3 4.03 18.51 10.47 3.33 6.43 2.73 13.17-1.7 21.02a27.44 27.44 0 0 1-7.65 8.65c-1 .6-2.81 1.5-2.81 1.5a21.71 21.71 0 0 1 3.02 2.12c3.01 3.02 3.21 6.94 2.91 10.66-.1 1.91-.3 3.72-.5 5.64l-.6 6.74c-.7 10.86-9.05 14.68-16 14.68h-.1c-6.23 0-10.05-2.21-11.66-6.54a20.25 20.25 0 0 1-.6-7.04v-1.7c0-1.82.2-3.63.3-5.54l.3-3.02a3.89 3.89 0 0 0-.9-3.12 4.1 4.1 0 0 0-2.82-1.3c-3.02-.2-5.53-.3-7.85-.3h-3.62s-.4 2-.7 2.91a54.36 54.36 0 0 0-1.2 5.53c-.7 3.12-1.41 6.44-2.42 9.46a15.78 15.78 0 0 1-15.2 10.86Zm24.64-32.5c1.71 0 3.12 0 4.43.1 3.52.1 6.04 1.1 7.64 2.92 1.51 1.7 2.12 4.22 1.81 7.34-.4 3.92-.6 8.05-.8 11.57a5.36 5.36 0 0 0 3.83 5.73 14.49 14.49 0 0 0 5.13.9c5.93 0 12.07-3.61 12.17-11.66a107.23 107.23 0 0 1 .9-10.97c.91-6.13-.7-9.45-5.93-12.37-.6-.4-2.11-1.1-2.72-1.4l3.42-1.72c3.42-1.3 7.25-3.22 9.26-7.14 2.01-4.02 3.32-6.64 3.92-10.06 1.81-10.06-2.31-16.2-12.47-18.2a64.56 64.56 0 0 0-13.18-.9h-4.43c-4.22 0-8.55.1-12.67.1-2.42 0-4.83.1-7.25.1-7.24.1-12.17 3.91-13.68 10.96-2.51 11.06-4.83 22.33-7.14 33.2l-1.5 7.14c-.2 1.1-.5 2.1-.7 3.22-.8 3.72-1.72 7.64-2.22 11.56-.4 2.52 0 4.43 1.1 5.74a6.62 6.62 0 0 0 4.63 2.31 17.05 17.05 0 0 0 2.21.1c6.34 0 10.77-3.72 12.38-10.36 1.2-5.13 2.31-10.26 3.32-15.29l.5-2.61c0-.2.1-.3.1-.4h4.93a27.35 27.35 0 0 0 3.01.1ZM247.1 82.28h-24.65c-5.73-.1-9.75-2.91-10.86-7.54a17.84 17.84 0 0 1-.1-7.64 3444.1 3444.1 0 0 1 10.56-49.7c1.41-6.43 4.13-10.56 8.45-12.77a18.4 18.4 0 0 1 7.75-2.32c6.33-.3 13.17-.5 20.11-.5h6.54c5.13.1 10.97.3 16.5 2.42 7.04 2.81 10.57 7.64 10.46 14.58-.1 7.45-2.61 13.38-7.54 17.6l-3.82 2.82a42.86 42.86 0 0 1 3.52 2.61c3.62 4.03 4.73 8.96 3.52 15.1-2.61 13.27-11.97 22.02-26.25 24.54a61.91 61.91 0 0 1-8.55.8Zm-22.53-3.72h15.79c4.63 0 8.45 0 11.97-.1a50.7 50.7 0 0 0 10.66-1.3c10.16-2.42 16.8-8.05 19.71-16.8 3.22-9.76.9-16.5-7.34-21.23 1.2-.7 2.21-1.4 3.42-2.01a15.75 15.75 0 0 0 8.15-10.67 8.38 8.38 0 0 1 .4-1.5 19.09 19.09 0 0 0 .5-2.32c.8-4.22.1-7.75-2.01-10.56-2.52-3.32-7.04-5.43-12.88-5.94-4.02-.4-8.45-.5-13.68-.5-3.92 0-7.84.1-11.77.2-3.12.1-6.44.2-9.55.2a9.58 9.58 0 0 0-8.25 4.13 25.98 25.98 0 0 0-3.62 7.64c-1.31 5.23-2.42 10.56-3.52 15.8-.3 1.3-.5 2.61-.8 3.92l-1.11 5.43c-1.81 8.75-3.72 17.8-5.43 26.66a7.73 7.73 0 0 0 1.1 6.34c1.2 1.6 3.32 2.51 6.24 2.71h1.3ZM115.43 84.2a39.38 39.38 0 0 1-15.7-3.12c-11.26-4.63-17.3-13.18-17.9-25.45-.8-16.4 4.73-30.38 16.4-41.65 7.64-7.34 17.5-11.97 29.06-13.58a40.13 40.13 0 0 1 5.94-.4 39.36 39.36 0 0 1 18 4.43c8.45 4.32 13.58 11.56 15.3 21.52.2 1.31.3 2.72.4 4.13 0 .6.1 1.3.1 1.9-.8 15.5-5.84 27.77-15.4 37.53-7.34 7.44-16.7 12.07-28.06 13.98a43.83 43.83 0 0 1-8.14.71Zm17.5-80.38a47.33 47.33 0 0 0-17.4 3.32 45.02 45.02 0 0 0-24.85 23.04 50.8 50.8 0 0 0-5.13 26.86 23.43 23.43 0 0 0 8.55 16.7c4.53 3.72 10.16 5.73 17.1 6.43a43.75 43.75 0 0 0 5.13.2 44.53 44.53 0 0 0 31.79-12.57c11.67-11.17 16.6-25.25 14.58-41.85a23.31 23.31 0 0 0-10.46-16.8c-5.13-3.52-11.57-5.33-19.31-5.33ZM305.24 83.8a11.52 11.52 0 0 1-10.16-5.54c-1.5-2.62-1.9-5.63-1-9.56 1.4-6.43 2.7-12.87 4.12-19.31 2.1-9.66 4.12-19.31 6.23-28.97l.3-1.3c.9-4.13 1.71-8.06 4.03-11.48A17.02 17.02 0 0 1 322.24.5a13.66 13.66 0 0 1 2.92.3c6.44 1.41 9.35 6.04 8.65 13.98l-.9 4.53c-.8 4.03-1.82 8.75-2.82 13.48l-2.12 9.96c-1.9 8.85-3.82 18-5.83 26.86-1.61 7.34-5.94 11.97-12.78 13.68a18.52 18.52 0 0 1-4.12.5Zm17.2-79.57a12.73 12.73 0 0 0-2.82.3c-5.53 1.1-8.95 4.83-10.36 11.06-3.21 14.99-6.33 29.68-9.85 46.07-.1.6-.3 1.21-.4 1.91a75.67 75.67 0 0 0-1.51 8.55c-.4 4.13 1.6 6.94 5.53 7.65a12.49 12.49 0 0 0 2.72.3 13 13 0 0 0 12.77-10.46c2.62-11.87 5.13-23.94 7.65-35.71l1.8-8.45c.7-3.12 1.31-6.14 1.82-8.65l.6-2.82v-.2c0-5.43-.9-8.55-5.74-9.26a8.97 8.97 0 0 0-2.2-.3ZM181.31 83.8a17.58 17.58 0 0 1-5.83-1.11c-4.43-1.71-7.14-7.15-6.14-12.28 2.52-12.17 5.94-28.36 9.46-44.56.2-.8.3-1.6.5-2.41a80.74 80.74 0 0 1 3.52-13.08A16.22 16.22 0 0 1 197.61.4a15.35 15.35 0 0 1 3.02.3c6.43 1.41 9.05 5.23 9.05 13.08l-.5 2.41c-.5 2.52-1.2 5.74-1.81 9.06l-.3 1.5c-3.02 13.99-6.04 28.37-9.16 42.55-1.1 4.93-3.32 8.56-6.74 10.97a16.44 16.44 0 0 1-9.86 3.52Zm16.9-79.58c-7.04 0-11.77 4.03-13.38 11.27-1.3 5.94-2.61 11.97-3.82 17.8l-1.5 6.94-1.72 7.85c-1.5 7.14-3.12 14.58-4.62 21.93a8.85 8.85 0 0 0 1.4 7.44 7.55 7.55 0 0 0 6.04 2.62 19.63 19.63 0 0 0 2.31-.2c6.44-1.21 10.06-5.03 11.47-11.77 1.81-8.75 3.72-17.4 5.53-26.16 1.21-5.73 2.42-11.46 3.72-17.2l1.71-8.25.5-2.71v-.2c0-6.64-2.2-9.36-7.64-9.36Z"/><path d="M442.65 62.87c1.7-7.75 3.32-15.6 5.03-23.44l1.7-8.15.5-2.41c.5-2.52 1.01-5.03 1.72-7.54 0-.1.2-.3.3-.4h3.62a48.23 48.23 0 0 1 8.45.5c8.05 1.2 11.77 6.23 11.06 14.78a43.02 43.02 0 0 1-4.22 15.9c-3.42 6.64-9.05 10.16-17.1 10.76-.5 0-1.1.1-1.81.1h-6.74a18.63 18.63 0 0 1-2.52-.1Zm11.97-38.23-.6 3.12c-.2 1.21-.5 2.42-.8 3.62-.2.7-.3 1.41-.5 2.12-1.61 7.34-3.12 14.68-4.73 22.03-.2.7-.8 3.92-.8 3.92s4.33.1 5.13.1c4.93 0 10.96-2.82 13.38-6.34 3.92-5.53 4.83-12.07 5.53-17.3v-.2c0-6.74-2.01-9.55-7.54-10.56-1.31-.2-2.72-.3-4.03-.4-.7 0-1.3-.1-2-.1-.12.1-3.04 0-3.04 0ZM377.67 39.03h-13.08c1.2-5.63 2.62-11.57 3.82-17.6.2-.9.2-.9 1-.9h.1c2.72.1 5.44.1 7.65.1h7.25a10.35 10.35 0 0 1 1.7.1c5.74 1.1 6.64 3.82 6.85 6.03.3 3.82-1.21 8.55-5.34 10.46a26.73 26.73 0 0 1-7.44 1.71 18.64 18.64 0 0 1-2.51.1Zm-5.84-14.99s-.4 1.31-1 4.23c-.1.4-.2.8-.3 1.3a2.94 2.94 0 0 0-.2.91 92 92 0 0 0-.8 4.73s3.02.2 4.12.2h6.44a12.49 12.49 0 0 0 2.72-.3h.1a6.55 6.55 0 0 0 6.13-6.74c0-2.52-1.4-4.13-3.92-4.13-1 0-2.01 0-3.02-.1-2.01 0-4.12-.1-6.13-.2-.21.1-4.14.1-4.14.1ZM244.48 64.98h-8.75l.5-2.31c.7-3.22 1.31-6.44 2.01-9.56.2-.8.3-1.6.5-2.31.3-1.2.6-2.52.8-3.82 0-.1 0-.2.1-.2h9.46c2.41 0 4.33 0 6.04.1 4.93.1 8.55 2.91 8.75 6.73a9.91 9.91 0 0 1-6.03 9.96 20.39 20.39 0 0 1-6.74 1.51c-1.9-.1-4.02-.1-6.64-.1Zm6.24-14.68h-7.85s-.1.6-.4 1.9c-.4 1.72-.8 3.43-1.2 5.44-.1.7-.8 3.92-.8 3.92h1.9c1.21-.1 2.42-.1 3.53-.1a63.94 63.94 0 0 0 7.74-.5 9.15 9.15 0 0 0 5.34-3.52 4.43 4.43 0 0 0 .7-4.63c-.7-1.5-2.32-2.31-4.43-2.41-1.41-.1-2.92-.1-4.53-.1ZM256.05 36.81h-.6c-.8 0-1.6-.1-2.31-.1h-11.37v-.1l1.5-6.74c.7-3.52 1.52-6.94 2.32-10.46 0-.1.1-.2.2-.3h4.63c3.12 0 6.74 0 10.26.3 2.71.2 4.62 1.1 5.63 2.82 1.2 2 1.3 4.93.1 8.04a11.34 11.34 0 0 1-10.36 6.54Zm-5.43-3.62h3.22a22.77 22.77 0 0 0 2.72-.1 7.17 7.17 0 0 0 6.53-4.93 4.18 4.18 0 0 0-.3-3.52 4 4 0 0 0-2.91-1.6 9.78 9.78 0 0 0-1.81-.1h-9.26s-.5 1.6-1.1 4.42c-.1.6-.3 1.4-.5 2.31-.2 1.1-.8 3.52-.8 3.52s2.5.1 3.52.1ZM120.05 64.98a14.76 14.76 0 0 1-6.44-1.4c-4.22-2.02-6.43-5.64-7.04-11.68v-2.4c.7-11.48 3.73-19.22 9.66-25.16a17.45 17.45 0 0 1 12.17-4.93 17.21 17.21 0 0 1 6.74 1.41 11 11 0 0 1 6.54 9.06c1.5 11.16-1.3 21.02-8.45 29.37a17.86 17.86 0 0 1-13.18 5.73ZM129 22.93a14.97 14.97 0 0 0-12.27 6.34c-4.73 6.54-6.84 14.39-6.33 23.24.3 4.43 2.91 7.75 6.84 8.35a14.73 14.73 0 0 0 2.91.2 13.72 13.72 0 0 0 11.27-5.53c4.42-5.44 6.64-12.08 7.04-21.03V31.8c-.4-5.64-3.92-9.06-9.25-9.06Z"/></svg>