<svg xmlns="http://www.w3.org/2000/svg" width="20" height="20" viewBox="0 0 20 20">
  <path id="SEARCH_ICON" data-name="SEARCH ICON" d="M19.848,19.113l-5.691-5.461a7.683,7.683,0,0,0,2.49-5.666A8.217,8.217,0,0,0,8.323,0,8.126,8.126,0,0,0,0,7.986a8.126,8.126,0,0,0,8.323,7.986,8.327,8.327,0,0,0,4.98-1.638l5.762,5.529a.532.532,0,0,0,.711,0A.475.475,0,0,0,19.848,19.113ZM1.067,7.986A7.144,7.144,0,0,1,8.323,1.024,7.144,7.144,0,0,1,15.58,7.986a7.144,7.144,0,0,1-7.256,6.962A7.189,7.189,0,0,1,1.067,7.986Z" fill="#231f20"/>
</svg>
