<svg aria-hidden="true" style="position: absolute; width: 0; height: 0; overflow: hidden;" version="1.1" xmlns="http://www.w3.org/2000/svg" xmlns:xlink="http://www.w3.org/1999/xlink">
<defs>
<symbol id="angle-left-solid" viewBox="0 0 16 32">
<path d="M12 28c-0.512 0-1.024-0.195-1.414-0.586l-10-10c-0.781-0.781-0.781-2.047 0-2.828l10-10c0.781-0.781 2.047-0.781 2.828 0s0.781 2.047 0 2.828l-8.586 8.586 8.588 8.587c0.781 0.781 0.781 2.047 0 2.828-0.391 0.391-0.903 0.584-1.416 0.584z"></path>
</symbol>
<symbol id="angle-right-solid" viewBox="0 0 16 32">
<path d="M4 28c-0.512 0-1.024-0.195-1.414-0.586-0.781-0.781-0.781-2.047 0-2.828l8.589-8.586-8.589-8.588c-0.781-0.781-0.781-2.047 0-2.828s2.047-0.781 2.828 0l10 10c0.781 0.781 0.781 2.047 0 2.828l-10 10c-0.391 0.394-0.902 0.587-1.414 0.587z"></path>
</symbol>
<symbol id="hero-arrow" viewBox="0 0 28 32">
<path fill="#e0ff04" style="fill: var(--color1, #e0ff04)" d="M0 0l28 16-28 16z"></path>
</symbol>
<symbol id="search-icon" viewBox="0 0 32 32">
<path d="M31.757 30.581l-9.106-8.738c2.453-2.255 3.984-5.478 3.984-9.060 0-0.002 0-0.004 0-0.006v0c-0.205-7.101-6.011-12.779-13.142-12.779-0.062 0-0.124 0-0.186 0.001l0.009-0c-0.094-0.002-0.206-0.004-0.317-0.004-7.103 0-12.876 5.696-13 12.77l-0 0.012c0.124 7.085 5.897 12.781 13 12.781 0.111 0 0.223-0.001 0.333-0.004l-0.016 0c0.010 0 0.021 0 0.033 0 2.989 0 5.747-0.984 7.97-2.646l-0.035 0.025 9.219 8.846c0.15 0.135 0.35 0.218 0.569 0.218s0.419-0.083 0.57-0.219l-0.001 0.001c0.216-0.137 0.357-0.374 0.357-0.644 0-0.219-0.093-0.417-0.241-0.555l-0-0zM1.707 12.778c0.162-6.187 5.216-11.141 11.427-11.141 0.064 0 0.128 0.001 0.193 0.002l-0.010-0c0.055-0.001 0.12-0.002 0.184-0.002 6.211 0 11.265 4.954 11.426 11.126l0 0.015c-0.162 6.187-5.216 11.141-11.427 11.141-0.064 0-0.128-0.001-0.193-0.002l0.010 0c-0.034 0-0.074 0.001-0.115 0.001-6.225 0-11.295-4.945-11.496-11.121l-0-0.018z"></path>
</symbol>
<symbol id="shopping-bag" viewBox="0 0 26 32">
<path d="M8.849 6.174v-0.205c0.017-1.195 0.483-2.278 1.237-3.090l-0.003 0.003c0.801-0.782 1.881-1.282 3.076-1.337l0.011-0c1.195 0.017 2.279 0.483 3.091 1.238l-0.003-0.003c0.782 0.801 1.282 1.881 1.337 3.076l0 0.011v0.308zM8.025 10.598c0.442 0.031 0.792 0.382 0.823 0.82l0 0.003c-0.031 0.442-0.382 0.792-0.82 0.823l-0.003 0c-0.442-0.031-0.792-0.382-0.823-0.82l-0-0.003c-0.002-0.021-0.003-0.044-0.003-0.069 0-0.418 0.339-0.758 0.758-0.758 0.024 0 0.048 0.001 0.072 0.003l-0.003-0zM18.314 10.598c0.442 0.031 0.792 0.382 0.823 0.82l0 0.003c0 0.455-0.369 0.823-0.823 0.823s-0.823-0.368-0.823-0.823v0c-0-0.003-0-0.007-0-0.011 0-0.448 0.363-0.812 0.812-0.812 0.004 0 0.008 0 0.012 0h-0.001zM17.492 9.361l-0.015 0.007c-0.747 0.367-1.292 1.082-1.425 1.949v0c0 1.193 0.968 2.161 2.161 2.161s2.161-0.967 2.161-2.161l-0 0.004c0.001-0.024 0.001-0.049 0.001-0.074 0-0.894-0.547-1.661-1.339-1.988v-1.541l3.185 0.001c0.039-0.006 0.079-0.009 0.12-0.009 0.148 0 0.285 0.041 0.399 0.111l0.008 0.004c0.152 0.077 0.288 0.18 0.404 0.305 0.205 0.104 0.205 0.309 0.308 0.412l-0.002-0.005c0.070 0.13 0.109 0.279 0.109 0.437 0 0.029-0.001 0.058-0.004 0.083l1.235 20.166-0-0.003c0.002 0.022 0.004 0.045 0.004 0.068 0 0.129-0.040 0.249-0.106 0.347l-0.004 0.008c-0.077 0.152-0.18 0.288-0.305 0.404-0.104 0.205-0.308 0.205-0.412 0.308s-0.207 0.103-0.412 0.103l-20.676-0c-0.022 0.002-0.045 0.004-0.068 0.004-0.129 0-0.249-0.040-0.347-0.106l-0.008-0.004c-0.152-0.077-0.288-0.18-0.404-0.305v0c-0.205-0.104-0.205-0.308-0.308-0.412s-0.103-0.207-0.103-0.412l1.129-20.167c0-0.207 0.103-0.309 0.103-0.515 0.103-0.103 0.205-0.205 0.205-0.308l0.103-0.103 0.001-0.001c0.096-0.122 0.244-0.201 0.411-0.204 0.104-0.103 0.207-0.103 0.412-0.103h3.189v1.543l-0.014 0.006c-0.781 0.353-1.324 1.139-1.324 2.052 0 0 0 0 0 0.001l0-0.003c-0 0.018-0.001 0.036-0.001 0.054 0 1.165 0.945 2.11 2.11 2.11 0.018 0 0.036-0 0.051-0.001l-0.003-0c0.018 0 0.037 0.001 0.055 0.001 1.165 0 2.11-0.945 2.11-2.11 0-0.018-0-0.036-0.001-0.051l-0 0.004c0.001-0.024 0.001-0.049 0.001-0.074 0-0.894-0.547-1.661-1.339-1.988v-1.543h8.642v1.543zM19.137 6.174v-0.205c-0.003-3.295-2.672-5.965-5.967-5.968h-0.103c-1.642 0.035-3.123 0.695-4.22 1.751l0.002-0.002c-1.021 1.099-1.647 2.577-1.647 4.201 0 0.006 0 0.013 0 0.019v-0.001 0.205h-3.189c-0.372 0.009-0.724 0.084-1.049 0.213l0.021-0.007c-0.355 0.166-0.661 0.373-0.928 0.62l0.002-0.002-0.103 0.103c-0.199 0.238-0.371 0.509-0.506 0.801l-0.009 0.022c-0.111 0.303-0.185 0.654-0.205 1.019l-0 0.009-1.235 20.271c0.009 0.372 0.084 0.724 0.213 1.049l-0.007-0.021c0.138 0.365 0.349 0.674 0.616 0.925l0.001 0.001c0.251 0.268 0.561 0.479 0.909 0.612l0.017 0.006c0.303 0.111 0.654 0.185 1.019 0.205l0.009 0h20.683c0.372-0.009 0.724-0.084 1.049-0.213l-0.021 0.007c0.321-0.116 0.596-0.291 0.823-0.515l0.102-0.102c0.268-0.251 0.479-0.561 0.612-0.909l0.006-0.017c0.111-0.303 0.185-0.654 0.205-1.019l0-0.009-1.129-20.167c-0.009-0.372-0.084-0.724-0.213-1.049l0.007 0.021c-0.138-0.365-0.349-0.674-0.616-0.925l-0.001-0.001c-0.251-0.269-0.561-0.479-0.909-0.612l-0.017-0.006c-0.303-0.111-0.654-0.185-1.019-0.205l-0.009-0h-3.193z"></path>
</symbol>
<symbol id="wishlist-icon" viewBox="0 0 40 32">
<path d="M19.868 29.773c1.020-0.764 2.038-1.528 3.183-2.292 6.241-4.331 14.647-10.316 14.647-16.302 0.004-0.104 0.007-0.226 0.007-0.348 0-3.049-1.498-5.748-3.799-7.402l-0.027-0.019c-1.076-0.75-2.377-1.252-3.784-1.399l-0.035-0.003c-0.284-0.034-0.612-0.054-0.945-0.054-1.080 0-2.112 0.207-3.058 0.584l0.056-0.020c-2.689 1.099-4.664 3.454-5.212 6.315l-0.009 0.054c-0.103 0.449-0.499 0.779-0.972 0.779-0.061 0-0.121-0.006-0.18-0.016l0.006 0.001c-0.367-0.114-0.65-0.397-0.762-0.756l-0.002-0.008c-0.514-2.972-2.569-5.365-5.297-6.352l-0.057-0.018c-0.899-0.354-1.94-0.56-3.030-0.56-0.323 0-0.642 0.018-0.956 0.053l0.039-0.003c-1.442 0.149-2.743 0.652-3.846 1.419l0.027-0.018c-2.328 1.609-3.833 4.264-3.833 7.27 0 0.175 0.005 0.349 0.015 0.522l-0.001-0.024c0 6.113 8.406 11.971 14.647 16.302 1.216 0.778 2.254 1.532 3.246 2.341l-0.063-0.049zM24.325 29.137q-2.101 1.528-3.819 2.675c-0.179 0.119-0.4 0.19-0.637 0.19s-0.457-0.071-0.641-0.193l0.004 0.003c-1.020-0.764-2.419-1.661-3.819-2.675-6.496-4.714-15.412-10.827-15.412-17.96-0.005-0.129-0.009-0.281-0.009-0.433 0-3.714 1.853-6.994 4.686-8.968l0.036-0.024c1.337-0.887 2.941-1.482 4.669-1.657l0.044-0.004c0.388-0.055 0.836-0.087 1.291-0.087 1.326 0 2.589 0.268 3.738 0.753l-0.063-0.024c2.467 0.956 4.43 2.755 5.576 5.035l0.027 0.060c1.173-2.34 3.137-4.139 5.534-5.071l0.071-0.024c1.141-0.441 2.46-0.696 3.84-0.696 0.397 0 0.789 0.021 1.175 0.062l-0.048-0.004c1.769 0.243 3.361 0.83 4.766 1.691l-0.053-0.030c2.868 1.933 4.729 5.17 4.729 8.84 0 0.205-0.006 0.409-0.017 0.612l0.001-0.028c-0.136 7.127-9.044 13.24-15.666 17.953z"></path>
</symbol>
</defs>
</svg>
