<svg aria-hidden="true" style="position:absolute;width:0;height:0;overflow:hidden" xmlns="http://www.w3.org/2000/svg"><defs><symbol id="angle-left-solid" viewBox="0 0 16 32"><path d="M12 28c-.51 0-1.02-.2-1.41-.59l-10-10a2 2 0 0 1 0-2.82l10-10A2 2 0 1 1 13.4 7.4L4.83 16l8.59 8.59a2 2 0 0 1-1.42 3.4z"/></symbol><symbol id="angle-right-solid" viewBox="0 0 16 32"><path d="M4 28a2 2 0 0 1-1.41-3.41L11.18 16l-8.6-8.59a2 2 0 1 1 2.83-2.83l10 10a2 2 0 0 1 0 2.83l-10 10c-.39.4-.9.59-1.41.59z"/></symbol><symbol id="hero-arrow" viewBox="0 0 28 32"><path fill="#e0ff04" style="fill:var(--color1, #e0ff04)" d="m0 0 28 16L0 32z"/></symbol><symbol id="search-icon" viewBox="0 0 32 32"><path d="m31.76 30.58-9.1-8.74a12.26 12.26 0 0 0 3.98-9.06A13.15 13.15 0 0 0 13.49 0H13A13 13 0 0 0 0 12.75v.02a13 13 0 0 0 13.33 12.77h-.01.03c2.99 0 5.75-.98 7.97-2.64l-.04.02 9.22 8.85a.85.85 0 0 0 1.14 0 .76.76 0 0 0 .12-1.2zM1.7 12.78A11.43 11.43 0 0 1 13.13 1.64h.2-.01.18c6.21 0 11.27 4.95 11.43 11.12v.02A11.43 11.43 0 0 1 13.5 23.92h-.2.02-.12A11.5 11.5 0 0 1 1.7 12.8v-.02z"/></symbol><symbol id="shopping-bag" viewBox="0 0 26 32"><path d="M8.85 6.17v-.2c.02-1.2.48-2.28 1.24-3.1v.01a4.7 4.7 0 0 1 3.07-1.33h.01c1.2.01 2.28.48 3.1 1.23h-.01a4.7 4.7 0 0 1 1.33 3.08v.31zm-.82 4.43c.44.03.79.38.82.82a.89.89 0 0 1-.82.82.89.89 0 0 1-.83-.82v-.07a.76.76 0 0 1 .83-.75zm10.28 0c.45.03.8.38.83.82a.82.82 0 0 1-1.65 0v-.01c0-.45.36-.81.81-.81h.02zm-.82-1.24h-.01a2.6 2.6 0 0 0-1.43 1.96 2.16 2.16 0 0 0 4.32 0v-.07c0-.9-.54-1.66-1.33-2V7.73h3.18a.79.79 0 0 1 .52.1c.16.08.3.18.41.31.2.1.2.3.31.41a.92.92 0 0 1 .1.52l1.24 20.16v.07c0 .13-.04.25-.1.35-.08.16-.19.3-.31.4-.1.21-.31.21-.41.32s-.21.1-.42.1H2.82a.62.62 0 0 1-.35-.1 1.43 1.43 0 0 1-.41-.31c-.2-.1-.2-.31-.3-.42s-.11-.2-.11-.4L2.78 9.05c0-.21.1-.31.1-.52.1-.1.2-.2.2-.3l.1-.11h.01c.1-.12.24-.2.41-.2.1-.1.2-.1.41-.1h3.2v1.54h-.02a2.25 2.25 0 0 0-1.33 2.05v.06c0 1.16.95 2.1 2.11 2.1h.11c1.16 0 2.1-.94 2.1-2.1v-.13c0-.89-.54-1.66-1.33-1.98V7.82h8.64v1.55zm1.65-3.19v-.2c0-3.3-2.68-5.97-5.97-5.97h-.1c-1.64.04-3.13.7-4.22 1.75a6.15 6.15 0 0 0-1.65 4.2v.22H4.01c-.37.01-.72.09-1.05.22L3 6.38a3.6 3.6 0 0 0-.93.62l-.1.1c-.2.24-.37.51-.51.8v.02c-.12.3-.2.66-.21 1.02v.01L0 29.22c.01.38.09.73.21 1.05v-.02c.14.37.35.67.61.93s.57.48.91.6l.02.01c.3.12.65.19 1.02.21h20.7c.36 0 .72-.08 1.04-.21h-.02c.32-.11.6-.29.82-.51l.1-.1c.27-.25.48-.56.62-.91v-.02c.11-.3.19-.65.2-1.02L25.12 9.05c-.01-.38-.09-.73-.22-1.05l.01.02a2.45 2.45 0 0 0-.61-.93 2.43 2.43 0 0 0-.91-.61h-.02c-.3-.12-.66-.2-1.02-.21h-3.2z"/></symbol><symbol id="wishlist-icon" viewBox="0 0 40 32"><path d="M19.87 29.77c1.02-.76 2.04-1.52 3.18-2.29 6.24-4.33 14.65-10.31 14.65-16.3v-.35a9.1 9.1 0 0 0-3.8-7.4l-.02-.02a8.1 8.1 0 0 0-3.79-1.4h-.03a8.12 8.12 0 0 0-4 .53l.05-.02a8.58 8.58 0 0 0-5.2 6.31l-.02.06a1 1 0 0 1-1.15.76c-.36-.11-.64-.4-.76-.75v-.01a8.23 8.23 0 0 0-5.3-6.35l-.05-.02A8.33 8.33 0 0 0 9.64 2h.04a8.16 8.16 0 0 0-3.85 1.42l.03-.02a8.81 8.81 0 0 0-3.82 7.79v-.02c0 6.1 8.4 11.97 14.65 16.3 1.22.78 2.25 1.53 3.25 2.34l-.07-.05zm4.45-.63q-2.1 1.52-3.81 2.67a1.15 1.15 0 0 1-1.28 0c-1.02-.76-2.42-1.66-3.82-2.67C8.91 24.42.01 18.3.01 11.18l-.02-.44c0-3.71 1.86-6.99 4.69-8.96l.03-.03A10.35 10.35 0 0 1 9.38.1h.05a9.59 9.59 0 0 1 5.03.67l-.07-.03c2.47.96 4.43 2.76 5.58 5.04l.03.06A10.42 10.42 0 0 1 25.53.76l.07-.03A10.73 10.73 0 0 1 30.62.1h-.05c1.77.24 3.36.82 4.76 1.69l-.05-.03A10.63 10.63 0 0 1 40 11.2v-.03c-.13 7.13-9.04 13.24-15.66 17.95z"/></symbol></defs></svg>